HIERARCHY
ROOT root
{
	OFFSET 0.000000 0.000000 0.000000
	CHANNELS 6 Xposition Yposition Zposition Zrotation Yrotation Xrotation
	JOINT lhip
	{
		OFFSET 0.058581 -0.082280 -0.017664
		CHANNELS 3 Zrotation Yrotation Xrotation
		JOINT lknee
		{
			OFFSET 0.043451 -0.386469 0.008037
			CHANNELS 3 Zrotation Yrotation Xrotation
			JOINT lankle
			{
				OFFSET -0.014790 -0.426874 -0.037428
				CHANNELS 3 Zrotation Yrotation Xrotation
				JOINT ltoe
				{
					OFFSET 0.041054 -0.060286 0.122042
					CHANNELS 3 Zrotation Yrotation Xrotation
					End Site
					{
						OFFSET 0.000000 0.000000 0.000000
					}
				}
			}
		}
	}
	JOINT rhip
	{
		OFFSET -0.060310 -0.090513 -0.013543
		CHANNELS 3 Zrotation Yrotation Xrotation
		JOINT rknee
		{
			OFFSET -0.043257 -0.383688 -0.004843
			CHANNELS 3 Zrotation Yrotation Xrotation
			JOINT rankle
			{
				OFFSET 0.019056 -0.420046 -0.034562
				CHANNELS 3 Zrotation Yrotation Xrotation
				JOINT rtoe
				{
					OFFSET -0.034840 -0.062106 0.130323
					CHANNELS 3 Zrotation Yrotation Xrotation
					End Site
					{
						OFFSET 0.000000 0.000000 0.000000
					}
				}
			}
		}
	}
	JOINT lowerback
	{
		OFFSET 0.004439 0.124404 -0.038385
		CHANNELS 3 Zrotation Yrotation Xrotation
		JOINT upperback
		{
			OFFSET 0.004488 0.137956 0.026820
			CHANNELS 3 Zrotation Yrotation Xrotation
			JOINT chest
			{
				OFFSET -0.002265 0.056032 0.002855
				CHANNELS 3 Zrotation Yrotation Xrotation
				JOINT lowerneck
				{
					OFFSET -0.013390 0.211636 -0.033468
					CHANNELS 3 Zrotation Yrotation Xrotation
					JOINT upperneck
					{
						OFFSET 0.010113 0.088937 0.050410
						CHANNELS 3 Zrotation Yrotation Xrotation
						End Site
						{
							OFFSET 0.000000 0.000000 0.000000
						}
					}
				}
				JOINT lclavicle
				{
					OFFSET 0.071702 0.114000 -0.018898
					CHANNELS 3 Zrotation Yrotation Xrotation
					JOINT lshoulder
					{
						OFFSET 0.122921 0.045205 -0.019046
						CHANNELS 3 Zrotation Yrotation Xrotation
						JOINT lelbow
						{
							OFFSET 0.255332 -0.015649 -0.022946
							CHANNELS 3 Zrotation Yrotation Xrotation
							JOINT lwrist
							{
								OFFSET 0.265709 0.012698 -0.007375
								CHANNELS 3 Zrotation Yrotation Xrotation
								End Site
								{
									OFFSET 0.000000 0.000000 0.000000
								}
							}
						}
					}
				}
				JOINT rclavicle
				{
					OFFSET -0.082954 0.112472 -0.023707
					CHANNELS 3 Zrotation Yrotation Xrotation
					JOINT rshoulder
					{
						OFFSET -0.113228 0.046853 -0.008472
						CHANNELS 3 Zrotation Yrotation Xrotation
						JOINT relbow
						{
							OFFSET -0.260127 -0.014369 -0.031269
							CHANNELS 3 Zrotation Yrotation Xrotation
							JOINT rwrist
							{
								OFFSET -0.269108 0.006794 -0.006027
								CHANNELS 3 Zrotation Yrotation Xrotation
								End Site
								{
									OFFSET 0.000000 0.000000 0.000000
								}
							}
						}
					}
				}
			}
		}
	}
}
MOTION
Frames: 14
Frame Time: 0.033333
-1.948352 0.664788 0.996508 87.118964 -3.505018 87.788748 1.053821 -0.579169 -13.716505 -11.398666 -7.894927 25.937263 5.583657 16.596816 -6.905901 0.000000 -0.000000 0.000000 -3.006972 -8.736511 4.752733 -2.461166 -0.507272 14.365465 0.406450 -21.307081 -13.090854 0.000000 -0.000000 0.000000 -0.564157 7.855889 4.171867 -2.300605 -1.461982 0.251772 -0.159738 4.326972 -0.961503 -4.523474 7.980585 4.266114 2.120503 -8.576078 -8.092486 0.675826 -15.882849 -18.404640 9.069466 -35.899299 -28.596714 16.495397 -3.750110 -32.446418 15.735199 -6.963896 29.655147 8.831610 17.674904 1.158293 30.499154 -0.611836 5.459901 -3.028261 16.325199 25.069073 -12.575911 5.224614 33.061219 
-1.961551 0.654578 0.991206 93.219789 -4.396474 87.763048 0.664551 -2.425790 -17.588980 -12.588825 -7.250191 29.482051 5.148524 15.673216 -8.070072 0.000000 -0.000000 0.000000 -2.719423 -11.167869 4.316525 -2.639184 -3.108204 14.643989 -0.566147 -22.866899 -15.695235 0.000000 -0.000000 0.000000 -1.654618 9.404166 3.542100 -2.427980 -1.832939 1.670593 -0.225326 4.082719 -1.337250 -4.464701 4.079728 5.130508 3.105604 -13.046019 -6.481627 0.158830 -16.866987 -18.187204 10.347508 -41.287376 -30.665379 19.232619 -9.110924 -34.131087 19.671214 -9.961065 30.158295 10.605116 18.919290 0.666663 33.997371 0.533423 6.145762 -4.480365 18.114017 22.069704 -15.350076 6.222854 29.723134 
-1.970308 0.645006 0.986885 97.882433 -4.812682 86.970142 0.428190 -3.255662 -19.083329 -12.943587 -5.440499 31.191890 4.941800 14.909879 -9.332193 0.000000 -0.000000 0.000000 -2.328662 -12.339225 4.697481 -2.776834 -5.764402 15.100143 -1.381846 -23.580427 -17.476716 0.000000 -0.000000 0.000000 -1.778612 10.309744 3.628128 -2.500229 -1.518417 2.704572 -0.510630 4.123420 -1.845415 -4.232409 0.428791 6.503705 2.927388 -16.799358 -4.979109 -1.415629 -16.292090 -17.943139 7.826053 -46.835299 -29.514240 23.839426 -17.865738 -34.877552 23.153847 -13.451746 30.048892 12.326196 19.391875 0.883093 37.548979 3.385899 7.197145 -4.835793 18.484598 20.885800 -18.445514 7.810446 28.688029 
-1.977210 0.636207 0.983328 101.196465 -4.377602 85.637937 0.673616 -2.857580 -18.532873 -12.440826 -4.181067 30.956753 4.106881 13.975039 -10.771508 0.000000 -0.000000 0.000000 -1.389316 -12.319121 5.338521 -2.818100 -8.714360 16.052924 -1.392083 -23.127819 -17.620591 0.000000 -0.000000 0.000000 -1.294846 10.373038 4.306050 -2.354056 -0.613832 3.480365 -0.641636 4.861128 -2.186350 -3.112749 -1.972518 8.571376 3.013389 -20.091765 -4.612385 -3.496511 -15.244990 -17.667245 1.190450 -51.731771 -24.501032 30.842953 -28.548388 -34.558364 25.406057 -17.360550 31.541402 14.500054 20.335694 2.081755 40.569636 5.907312 8.529996 -6.120634 18.679836 20.513970 -19.562878 9.054340 28.454964 
-1.983325 0.628434 0.982732 104.137584 -4.118932 84.488447 0.510611 -2.935172 -17.246330 -12.020017 -4.233099 29.537262 3.897971 13.222289 -11.709512 0.000000 -0.000000 0.000000 -0.594505 -12.418301 6.005416 -3.148441 -11.091870 16.478413 -1.235169 -22.805966 -17.217560 0.000000 -0.000000 0.000000 -1.647919 10.178173 4.727054 -2.116035 0.006078 3.954218 -0.654273 5.679478 -2.760403 -1.706949 -4.877222 10.538195 3.570693 -21.776808 -3.977341 -6.086885 -13.881012 -16.541741 -8.270369 -55.131729 -16.526841 39.786223 -40.962435 -36.618377 23.877396 -18.613437 32.748330 16.505036 20.380509 2.849385 44.462766 8.335106 10.020175 -7.854557 19.063243 20.573028 -15.174138 6.976684 29.453556 
-1.989205 0.622633 0.983268 107.417903 -4.017086 84.472665 -0.190444 -4.411600 -17.700338 -11.210323 -4.933942 29.201296 3.755651 12.787324 -12.018950 0.000000 -0.000000 0.000000 -0.100691 -13.262279 5.258088 -3.329610 -12.510183 17.346750 -1.566611 -22.981119 -17.122977 0.000000 -0.000000 0.000000 -2.397498 10.988078 3.124748 -1.909127 -0.019869 5.056879 -0.821649 5.869650 -3.220269 -0.277512 -8.438809 11.954846 4.760043 -23.063415 -2.846186 -8.976440 -13.225118 -15.582638 -18.170676 -57.033286 -7.101398 46.363544 -52.940174 -38.144347 26.517945 -21.887359 30.565108 18.114451 19.925873 3.323341 48.137864 8.836068 11.616296 -7.431029 19.851649 21.032251 -18.239636 9.369888 28.391399 
-1.992548 0.617842 0.982821 110.625637 -3.840987 84.504833 -0.459835 -6.244582 -18.248093 -10.510262 -5.739770 28.967668 3.438730 12.167422 -11.713576 0.000000 -0.000000 0.000000 0.650995 -13.887755 5.199608 -3.568982 -14.672841 16.804968 -1.979169 -23.233363 -16.871815 0.000000 -0.000000 0.000000 -3.562838 11.352329 1.481422 -1.542358 0.003941 5.897703 -0.859993 5.912515 -3.724662 1.084147 -11.512647 13.188550 5.700053 -24.809467 -1.483255 -10.790874 -11.552430 -14.549629 -30.055868 -57.619036 4.330625 53.572505 -63.958396 -41.567824 26.909151 -24.283252 28.412642 19.098833 19.283752 3.955769 52.145652 8.170504 14.475856 -7.247142 21.169836 22.326220 -19.540286 10.787336 26.718945 
-1.995394 0.614573 0.981589 113.033544 -3.872598 84.260193 -0.696450 -7.954866 -18.502659 -10.162012 -6.073743 28.648434 3.662160 11.511271 -11.259776 0.000000 -0.000000 0.000000 1.112694 -14.147712 5.565851 -3.877753 -16.637581 16.025974 -2.199857 -23.584955 -16.970389 0.000000 -0.000000 0.000000 -4.844432 12.089956 0.651298 -1.255609 0.415045 6.165658 -0.761140 5.805467 -4.124633 2.265933 -14.455293 14.268178 6.417645 -26.876784 -0.339970 -11.493964 -9.794413 -13.272374 -41.660579 -56.744538 15.646556 61.318667 -73.819718 -46.973256 26.704433 -25.696394 24.738056 19.776455 17.851652 4.286421 55.836318 6.697244 16.462108 -6.809200 23.239172 23.225132 -18.824520 11.188746 24.826497 
-1.996692 0.612612 0.981401 114.571403 -3.860262 83.291179 -1.092639 -8.831895 -17.708272 -10.110533 -6.638175 28.510110 3.773322 11.562978 -11.091107 0.000000 -0.000000 0.000000 1.346003 -14.036462 6.511470 -4.194556 -17.547192 15.809106 -2.117709 -24.399826 -16.939143 0.000000 -0.000000 0.000000 -6.005485 12.768039 -0.105848 -0.661296 0.876209 7.136925 -0.589381 5.890327 -4.096727 2.582033 -16.715876 15.134814 7.299448 -27.816052 0.053338 -11.967818 -8.835726 -11.707602 -49.711848 -54.165056 24.251126 72.802326 -82.662700 -56.003812 28.975733 -27.338677 20.892735 20.619236 16.524782 4.195429 58.087437 5.202563 17.954013 -5.125669 23.596803 24.931080 -20.277622 12.570884 21.727174 
-1.997978 0.611245 0.981348 115.447064 -3.908656 82.487333 -1.590076 -9.552016 -16.770313 -9.640512 -7.015788 27.947154 3.691890 11.323891 -10.784602 0.000000 -0.000000 0.000000 1.379223 -13.980963 6.960644 -4.685241 -18.177114 16.306740 -1.964275 -24.608719 -16.780461 0.000000 -0.000000 0.000000 -6.908479 12.917382 -0.787108 -0.227356 1.110126 7.849942 -0.588019 5.788033 -4.034451 2.467753 -17.872623 16.283654 7.944154 -28.408212 0.264644 -12.215466 -7.649842 -9.969845 -53.363198 -50.404051 29.246754 -179.331743 -88.362927 -162.095010 28.204293 -29.487348 17.288655 21.643250 15.325086 5.192657 60.195571 3.991916 18.987298 -4.970851 23.323644 25.316482 -19.090164 14.022641 21.052375 
-2.000389 0.611126 0.981824 116.092266 -4.007727 82.081165 -2.151321 -9.881246 -16.322443 -9.253650 -7.255658 27.428493 3.882431 11.312563 -9.910179 0.000000 -0.000000 0.000000 1.336412 -13.922374 6.962279 -5.035664 -18.629511 16.715323 -2.462259 -25.039333 -16.398559 0.000000 -0.000000 0.000000 -7.761911 12.821353 -2.018035 0.127565 1.070749 9.071693 -0.689210 5.811160 -4.407150 2.039255 -18.583311 17.703292 8.660122 -28.300705 0.138566 -12.814412 -6.899849 -8.271953 -54.480899 -46.178938 32.097694 -105.478364 -83.111096 125.920976 27.195339 -31.851707 15.200185 22.192365 13.769682 5.310750 61.807138 1.923316 19.253306 -4.328015 22.509314 25.118080 -19.333399 15.304314 19.165645 
-2.003175 0.611297 0.982103 116.163588 -4.217355 81.778574 -2.600991 -9.741278 -16.042877 -9.003322 -7.180197 27.127236 3.982031 11.971739 -9.580321 0.000000 -0.000000 0.000000 1.255516 -13.816074 7.228841 -5.337019 -18.581392 16.327258 -2.640354 -25.411533 -16.552271 0.000000 -0.000000 0.000000 -8.441473 12.485003 -2.981579 0.217567 1.000874 9.595702 -0.875782 5.837403 -4.328157 1.645337 -19.296292 18.847533 9.538158 -27.741513 0.175481 -13.732553 -6.037107 -6.638052 -53.839636 -42.139432 33.290534 -83.428062 -77.563272 104.203886 29.322894 -34.572277 12.977164 22.386876 11.938104 5.259813 62.566384 -0.017191 18.893094 -2.529423 21.105283 25.218927 -21.452592 17.174098 16.960666 
-2.006295 0.612288 0.981736 115.978274 -4.272032 81.596351 -2.735601 -9.260274 -15.803218 -8.996361 -7.429097 26.576823 3.853063 12.613090 -9.134908 0.000000 -0.000000 0.000000 1.078465 -13.592951 7.179228 -5.153141 -17.818820 16.402524 -2.751259 -26.077085 -16.537150 0.000000 -0.000000 0.000000 -8.459679 12.008296 -3.827423 -0.021586 0.922693 9.894070 -1.180096 5.832905 -3.947979 1.010889 -20.103468 19.998594 10.277796 -26.382033 -0.123572 -15.340047 -5.965759 -5.334134 -52.010485 -37.278480 32.949493 -65.238441 -72.211068 86.430721 29.123917 -34.598584 11.842616 21.468876 10.654243 4.840953 63.061657 -2.152401 18.148244 0.199460 20.303860 24.389104 -21.772189 14.170339 11.950839 
-2.009857 0.613043 0.981665 115.296429 -4.166395 81.248375 -2.692944 -8.804512 -15.498667 -9.055477 -7.657751 26.213879 3.899615 13.251053 -8.668638 0.000000 -0.000000 0.000000 0.783716 -13.293258 7.027364 -4.862104 -17.231495 17.061560 -2.687246 -26.298169 -16.694555 0.000000 -0.000000 0.000000 -8.140092 11.657028 -4.038928 -0.331285 0.977839 9.677098 -1.297680 5.763347 -3.496881 0.652147 -20.796944 20.624732 10.619565 -25.041053 -0.040505 -17.202101 -5.919188 -4.123905 -50.691268 -31.601460 31.804547 -46.963906 -66.343192 67.278888 25.327232 -33.366249 12.641833 21.072452 10.099855 4.639932 62.151780 -4.642628 17.510058 2.999011 19.093258 24.197966 -17.265433 10.854779 8.665614 
